# xmcd CD database file
#
# Track frame offsets:
#	150
#	18714
#	36877
#	50991
#	57876
#	73742
#	91705
#	96690
#	119228
#	140016
#	141402
#	158004
#	159762
#	175165
#	191422
#	195675
#	212822
#	228744
#	232766
#	252212
#
# Disc length: 3424 seconds
#
# Revision: 0
# Processed by: cddbd v1.5.2PL0 Copyright (c) Steve Scherf et al.
# Submitted via: CDex 1.51
#
DISCID=2a0d5e14
DTITLE=Paul Burch - Meridian Rising
DYEAR=2016
DGENRE=Country
TTITLE0=Meridian
TTITLE1=Cadillacin'
TTITLE2=US Rte 49
TTITLE3=Baby Blue Yodel
TTITLE4=Black Lady Blues
TTITLE5=Ain't That Water Lucky
TTITLE6=June
TTITLE7=To Paris (with regrets)
TTITLE8=Gunter Hotel Blues
TTITLE9=Under Canvas
TTITLE10=The Girl I Sawed in Half
TTITLE11=Song of Silas Green
TTITLE12=Poor Don't Vote
TTITLE13=If I Could Only Catch My Breath
TTITLE14=Sign of Distress
TTITLE15=Fast Fuse Blues
TTITLE16=Sorry I Can't Stay
TTITLE17=Meridian Rising
TTITLE18=Back to the Honky Tonks
TTITLE19=Oh Didn't He Ramble
EXTD=YEAR: 2016
EXTT0=
EXTT1=
EXTT2=
EXTT3=
EXTT4=
EXTT5=
EXTT6=
EXTT7=
EXTT8=
EXTT9=
EXTT10=
EXTT11=
EXTT12=
EXTT13=
EXTT14=
EXTT15=
EXTT16=
EXTT17=
EXTT18=
EXTT19=
PLAYORDER=
